<?xml version="1.0" standalone="no"?>
<!DOCTYPE svg PUBLIC "-//W3C//DTD SVG 20010904//EN"
 "http://www.w3.org/TR/2001/REC-SVG-20010904/DTD/svg10.dtd">
<svg version="1.0" xmlns="http://www.w3.org/2000/svg"
 width="201.000000pt" height="201.000000pt" viewBox="0 0 201.000000 201.000000"
 preserveAspectRatio="xMidYMid meet">
<metadata>
Created by potrace 1.14, written by Peter Selinger 2001-2017
</metadata>
<g transform="translate(0.000000,201.000000) scale(0.100000,-0.100000)"
fill="#000000" stroke="none">
<path d="M527 1534 c-1 -1 -25 -5 -54 -8 -60 -7 -153 -40 -203 -72 -90 -58
-136 -118 -228 -297 -37 -74 -52 -207 -32 -306 16 -83 58 -160 125 -226 106
-106 228 -148 412 -141 119 5 194 25 276 76 26 16 47 28 47 26 0 -2 -7 -20
-15 -39 -8 -20 -15 -39 -15 -42 0 -3 69 -5 153 -5 177 0 185 3 224 84 13 28
33 67 43 86 11 19 45 100 76 180 31 80 58 147 60 149 2 2 7 -5 10 -15 44 -124
170 -441 178 -450 29 -29 60 -34 206 -34 l151 0 -7 23 c-3 12 -13 34 -20 49
-8 15 -14 29 -14 30 0 2 23 4 50 3 45 -1 49 1 44 18 -5 17 -264 612 -313 722
-10 22 -29 65 -41 95 -13 30 -27 60 -31 65 -6 8 -296 14 -306 6 0 0 7 -23 18
-51 l19 -50 -23 -1 c-12 -1 -34 -1 -49 -1 -23 0 -29 -7 -48 -54 -12 -30 -26
-54 -30 -54 -4 0 -33 -60 -64 -132 -31 -73 -63 -144 -71 -158 -15 -28 -15 -28
-202 -29 l-111 -1 -23 -36 c-43 -70 -147 -93 -229 -51 -57 29 -90 88 -90 163
0 48 3 55 28 68 72 37 169 20 221 -39 17 -20 31 -40 31 -45 0 -6 69 -10 175
-10 96 0 175 4 175 8 0 5 -6 29 -14 54 l-13 45 43 -2 c24 -2 44 -2 44 -1 0 10
-33 116 -43 136 -17 35 -72 112 -94 130 -76 64 -177 112 -264 125 -42 6 -158
12 -162 9z"/>
</g>
</svg>
